<svg xmlns="http://www.w3.org/2000/svg" xmlns:xlink="http://www.w3.org/1999/xlink" viewBox="0 0 135.99 133.92"><defs><style>.cls-1{fill:#2f06e0;}.cls-2{fill:url(#Degradado_sin_nombre_88);}.cls-3{fill:#fff;}</style><linearGradient id="Degradado_sin_nombre_88" x1="37.63" y1="96.75" x2="125.15" y2="66.88" gradientUnits="userSpaceOnUse"><stop offset="0.05" stop-color="#fff"/><stop offset="0.08" stop-color="#f6fbfd"/><stop offset="0.12" stop-color="#dcf0f9"/><stop offset="0.17" stop-color="#b3ddf1"/><stop offset="0.23" stop-color="#79c4e7"/><stop offset="0.3" stop-color="#30a4da"/><stop offset="0.31" stop-color="#1e9cd7"/><stop offset="0.59" stop-color="#22b573"/><stop offset="0.73" stop-color="#2a43ba"/><stop offset="0.81" stop-color="#2f06e0"/></linearGradient></defs><g id="Capa_2" data-name="Capa 2"><g id="Capa_1-2" data-name="Capa 1"><path class="cls-1" d="M18.7,3.08h98.59A15.62,15.62,0,0,1,132.91,18.7v98.59a15.62,15.62,0,0,1-15.62,15.62H51.82A48.74,48.74,0,0,1,3.08,84.17V18.7A15.62,15.62,0,0,1,18.7,3.08Z" transform="translate(-4.25 4.53) rotate(-3.7)"/><path class="cls-2" d="M77.77,120.26a50.77,50.77,0,0,1-7.75-.6c-15-2.34-25.84-8.86-32.18-19.39C26.79,81.89,34.68,58.58,35,57.6l16.51,5.72-8.25-2.86,8.26,2.83c0,.17-5.54,16.72,1.32,28,3.59,5.93,10.09,9.55,19.85,11.07,18.57,2.88,31.65-10.35,37.79-18.5l14,10.52C111.86,111.12,95.18,120.26,77.77,120.26Z"/><path class="cls-3" d="M76.11,80.67a62.58,62.58,0,0,1-25.85-5.81A91.43,91.43,0,0,1,10.85,39.74,7.56,7.56,0,0,1,14.3,28.82l2.25-1a7.57,7.57,0,0,1,9.38,3C30.55,38.26,40.56,51.23,57.51,59c15.59,7.1,29,4.15,35.67-.54,3.56-2.49,5.48-5.52,5.26-8.32-.33-4.36-1-12.48-19.78-11.1-10,.74-18.78,9.71-18.86,9.8l-12.68-12c1.35-1.42,13.68-14,30.27-15.19,10.66-.78,19.32.82,25.74,4.77,5.28,3.24,11.77,9.76,12.74,22.42.7,9.12-3.92,17.87-12.68,24a46.23,46.23,0,0,1-23.72,7.82C78.36,80.64,77.23,80.67,76.11,80.67Z"/></g></g></svg>