<svg xmlns="http://www.w3.org/2000/svg" xmlns:xlink="http://www.w3.org/1999/xlink" viewBox="0 0 4893.47 3339.49"><defs><style>.cls-1{fill:none;}.cls-2{fill:#ccc;}.cls-3{opacity:0.43;fill:url(#patron_esmarty);}</style><pattern id="patron_esmarty" data-name="patron esmarty" width="235.31" height="225.03" patternTransform="translate(-863.8 -1087.35) scale(2.23)" patternUnits="userSpaceOnUse" viewBox="0 0 235.31 225.03"><rect class="cls-1" width="235.31" height="225.03"/><path class="cls-2" d="M50.81,216a28.35,28.35,0,0,1-4.19-.32c-8.12-1.27-14-4.8-17.41-10.49-6-9.95-1.71-22.56-1.52-23.09l8.93,3.1-4.47-1.55,4.48,1.53c0,.09-3,9.05.71,15.17,1.94,3.2,5.46,5.16,10.74,6,10.05,1.56,17.12-5.6,20.44-10L76.07,202C69.26,211.07,60.23,216,50.81,216Z"/><path class="cls-2" d="M49.91,194.59a33.89,33.89,0,0,1-14-3.14,49.51,49.51,0,0,1-21.32-19,4.09,4.09,0,0,1,1.87-5.91l1.21-.52a4.09,4.09,0,0,1,5.08,1.62,40.16,40.16,0,0,0,17.09,15.2c8.43,3.85,15.66,2.25,19.29-.29,1.93-1.34,3-3,2.85-4.5-.18-2.36-.52-6.75-10.7-6-5.43.4-10.16,5.25-10.21,5.3l-6.86-6.51c.73-.77,7.4-7.57,16.38-8.22,5.77-.42,10.45.44,13.93,2.58,2.85,1.75,6.36,5.28,6.89,12.13.38,4.93-2.12,9.66-6.86,13a25.09,25.09,0,0,1-12.83,4.23C51.13,194.58,50.52,194.59,49.91,194.59Z"/><path class="cls-2" d="M69.61,132.31a27.7,27.7,0,0,1-2.86,3.09c-6,5.59-12.43,8-19,7.15C36.22,141.08,29,129.92,28.67,129.44l8-5.09-4,2.55,4-2.56c0,.08,5.24,8,12.34,8.84,3.72.46,7.43-1.08,11.35-4.72,7.46-6.91,6.22-16.9,4.82-22.24l9.15-2.4C77.16,114.77,75.45,124.92,69.61,132.31Z"/><path class="cls-2" d="M52.24,119.74a33.93,33.93,0,0,1-11.13,9,49.37,49.37,0,0,1-28.13,5,4.09,4.09,0,0,1-3.48-5.12l.35-1.28a4.09,4.09,0,0,1,4.41-3,40.22,40.22,0,0,0,22.53-4C45,116.11,48.26,109.45,48.52,105c.14-2.35-.5-4.18-1.76-5-2-1.32-5.62-3.78-11.35,4.68-3,4.5-2.18,11.23-2.17,11.3l-9.36,1.34c-.15-1-1.35-10.5,3.7-17.95,3.25-4.78,6.83-7.92,10.66-9.33,3.15-1.15,8.09-1.72,13.79,2.11,4.11,2.77,6.27,7.66,5.93,13.43a25,25,0,0,1-4.63,12.69C53,118.77,52.62,119.26,52.24,119.74Z"/><path class="cls-2" d="M113.13,19.38a27,27,0,0,1,3.74,1.93c7,4.33,11,9.86,11.94,16.44,1.64,11.48-7.2,21.44-7.58,21.86l-7-6.33,3.51,3.16-3.52-3.15c.06-.07,6.28-7.17,5.25-14.25-.54-3.71-3-6.88-7.56-9.69-8.65-5.35-18-1.52-22.73,1.25l-4.74-8.18C94.22,16.74,104.46,15.71,113.13,19.38Z"/><path class="cls-2" d="M105.62,39.45a33.88,33.88,0,0,1,11.65,8.34A49.49,49.49,0,0,1,129.51,73.6a4.09,4.09,0,0,1-4,4.71h-1.32a4.1,4.1,0,0,1-4-3.46,40.21,40.21,0,0,0-9.81-20.67C104,47.36,96.75,46,92.42,46.94c-2.3.49-3.89,1.6-4.37,3-.76,2.24-2.16,6.42,7.51,9.7,5.16,1.75,11.41-.88,11.47-.91l3.78,8.67c-1,.43-9.76,4.08-18.28,1.19-5.48-1.85-9.46-4.48-11.83-7.8C78.76,58.1,76.9,53.49,79.08,47c1.57-4.69,5.72-8.07,11.37-9.28a25.18,25.18,0,0,1,13.47,1.1C104.49,39,105.06,39.21,105.62,39.45Z"/><path class="cls-2" d="M218.61,53.31a27.7,27.7,0,0,1-2.86,3.09c-6,5.59-12.43,8-19,7.15C185.22,62.08,178,50.92,177.67,50.44l8-5.09-4,2.55,4-2.56c.05.08,5.24,8,12.34,8.84,3.72.46,7.43-1.08,11.35-4.72,7.46-6.91,6.22-16.9,4.82-22.24l9.15-2.4C226.16,35.77,224.45,45.92,218.61,53.31Z"/><path class="cls-2" d="M201.24,40.74a33.93,33.93,0,0,1-11.13,9,49.37,49.37,0,0,1-28.13,5,4.09,4.09,0,0,1-3.48-5.12l.35-1.28a4.09,4.09,0,0,1,4.41-3,40.22,40.22,0,0,0,22.53-4C194,37.11,197.26,30.45,197.52,26c.14-2.35-.5-4.18-1.76-5-2-1.32-5.62-3.78-11.35,4.68-3,4.5-2.18,11.23-2.17,11.3l-9.36,1.34c-.15-1-1.35-10.5,3.7-17.95,3.25-4.78,6.83-7.92,10.66-9.33,3.15-1.15,8.09-1.72,13.79,2.11,4.11,2.77,6.27,7.66,5.93,13.43a25,25,0,0,1-4.63,12.69C202,39.77,201.62,40.26,201.24,40.74Z"/><path class="cls-2" d="M64.89,52.19a25,25,0,0,1-1.75,3.46c-3.92,6.49-9,10.25-15,11.17C37.52,68.44,28.25,60.38,27.86,60l5.78-6.54-2.89,3.27,2.88-3.28c.06.06,6.66,5.73,13.18,4.71,3.42-.54,6.32-2.85,8.87-7.07,4.86-8,1.23-16.56-1.37-20.94l7.5-4.45C67.14,34.72,68.19,44.15,64.89,52.19Z"/><path class="cls-2" d="M46.3,45.45a31.16,31.16,0,0,1-7.58,10.83A45.62,45.62,0,0,1,15,67.81a3.77,3.77,0,0,1-4.39-3.67V62.93a3.77,3.77,0,0,1,3.15-3.77,37.15,37.15,0,0,0,19-9.25c6.23-5.84,7.4-12.57,6.51-16.56-.47-2.11-1.51-3.58-2.84-4-2.08-.67-5.94-1.92-8.87,7-1.57,4.77.92,10.51.94,10.57l-8,3.56c-.4-.89-3.86-9-1.27-16.85,1.66-5.07,4-8.76,7.08-11,2.5-1.82,6.74-3.58,12.76-1.62,4.35,1.4,7.51,5.19,8.67,10.4a23.14,23.14,0,0,1-.88,12.43C46.72,44.4,46.52,44.93,46.3,45.45Z"/><path class="cls-2" d="M165.66,210a30.31,30.31,0,0,1-3.83,2.76c-7.89,4.82-15.48,6-22.56,3.65-12.35-4.19-17.85-18.11-18.08-18.7l9.92-3.84-5,1.92,4.95-1.93c0,.1,4,9.94,11.63,12.49,4,1.34,8.43.47,13.56-2.66,9.76-6,10.63-17.24,10.28-23.44l10.61-.6C177.9,192.31,173.74,203.11,165.66,210Z"/><path class="cls-2" d="M149.33,192.22a37.94,37.94,0,0,1-14.28,7.46,55.53,55.53,0,0,1-32.1-.82,4.59,4.59,0,0,1-2.69-6.42l.67-1.33a4.59,4.59,0,0,1,5.52-2.3,45.33,45.33,0,0,0,25.72.64c10-2.83,15.07-9.45,16.34-14.27.68-2.55.38-4.71-.82-5.93-1.87-1.89-5.35-5.42-13.55,2.62-4.37,4.29-4.9,11.89-4.9,12l-10.62-.61c.07-1.2.86-11.87,8.08-18.95,4.64-4.55,9.3-7.21,13.83-7.9,3.72-.57,9.3-.1,14.72,5.4,3.92,4,5.21,9.84,3.54,16.12a28.1,28.1,0,0,1-7.93,12.95C150.36,191.32,149.86,191.78,149.33,192.22Z"/><path class="cls-2" d="M168.8,144a31,31,0,0,1-.83-4.65c-.92-9.2,1.26-16.57,6.49-21.91,9.13-9.31,24.06-8.24,24.69-8.19l-.84,10.6.42-5.3-.4,5.3c-.11,0-10.7-.7-16.3,5.06-2.94,3-4.08,7.4-3.48,13.38,1.14,11.38,10.93,17,16.67,19.42l-4.06,9.82C179.4,162.72,171.47,154.29,168.8,144Z"/><path class="cls-2" d="M191.85,137a38.13,38.13,0,0,1-.53-16.1A55.55,55.55,0,0,1,206,92.33a4.58,4.58,0,0,1,6.95.36l.91,1.17a4.6,4.6,0,0,1-.32,6,45.23,45.23,0,0,0-11.72,22.9c-1.8,10.26,2,17.68,5.78,20.91,2,1.72,4.09,2.39,5.7,1.83,2.52-.86,7.2-2.47,3.51-13.34-2-5.8-8.59-9.57-8.66-9.61l5.15-9.3c1,.57,10.32,5.91,13.57,15.49,2.09,6.15,2.47,11.5,1.13,15.89-1.09,3.6-3.94,8.41-11.24,10.93-5.27,1.8-11.12.42-16.07-3.8A28.11,28.11,0,0,1,192.43,139C192.22,138.33,192,137.67,191.85,137Z"/><path class="cls-2" d="M124,93.86a25.45,25.45,0,0,1,4,.35c7.7,1.3,13.21,4.71,16.4,10.15,5.56,9.5,1.37,21.42,1.19,21.92l-8.45-3,4.23,1.52-4.23-1.5c0-.09,2.94-8.55-.5-14.4-1.81-3.06-5.12-5-10.12-5.8-9.52-1.59-16.31,5.12-19.51,9.26l-7.1-5.49C106.43,98.34,115.05,93.75,124,93.86Z"/><path class="cls-2" d="M124.59,114.19a32,32,0,0,1,13.23,3.14,46.87,46.87,0,0,1,20,18.27,3.88,3.88,0,0,1-1.84,5.58l-1.16.48a3.88,3.88,0,0,1-4.79-1.59,38.15,38.15,0,0,0-16-14.62c-8-3.75-14.84-2.31-18.31,0-1.84,1.26-2.85,2.8-2.75,4.24.14,2.24.41,6.41,10.08,5.82,5.16-.32,9.7-4.87,9.74-4.92l6.43,6.26c-.7.72-7.1,7.09-15.62,7.61-5.48.34-9.91-.54-13.19-2.61-2.68-1.69-6-5.08-6.4-11.58-.3-4.69,2.13-9.15,6.66-12.23a23.68,23.68,0,0,1,12.22-3.87C123.43,114.19,124,114.18,124.59,114.19Z"/></pattern></defs><g id="Capa_2" data-name="Capa 2"><g id="Capa_1-2" data-name="Capa 1"><rect class="cls-3" width="4893.47" height="3339.49"/></g></g></svg>